<svg width="19" height="32" viewBox="0 0 19 32" fill="none" xmlns="http://www.w3.org/2000/svg">
<path fill-rule="evenodd" clip-rule="evenodd" d="M10.2355 4.38519V0.711111C10.2355 0.414815 10.1742 0.296296 10.0516 0.177778C9.92903 0.0592593 9.74516 0 9.5 0C9.25484 0 9.07097 0.0592593 8.94839 0.177778C8.82581 0.296296 8.76452 0.414815 8.76452 0.711111V4.38519L8.09032 4.5037C3.55484 5.15556 0 9.06667 0 13.8074V22.5185C0 27.8519 4.22903 32 9.5 32C14.771 32 19 27.8519 19 22.5185V13.8074C19 9.06667 15.4452 5.15556 10.8484 4.5037L10.2355 4.38519ZM1.40968 13.8074C1.40968 9.3037 4.96452 5.74815 9.5 5.74815C14.0355 5.74815 17.5903 9.3037 17.5903 13.8074V22.8148C17.5903 27.3185 14.0355 30.8741 9.5 30.8741C4.96452 30.8741 1.40968 27.3185 1.40968 22.8148V13.8074Z" fill="#EFEFEF"/>
</svg>
